<svg version="1.1" id="レイヤー_1" xmlns="http://www.w3.org/2000/svg" xmlns:xlink="http://www.w3.org/1999/xlink" x="0px"
	 y="0px" viewBox="0 0 200 88" style="enable-background:new 0 0 200 88;" xml:space="preserve">
<style type="text/css">
	.st0{font-family:'HGSSoeiKakupoptai';}
	.st1{font-size:32.3033px;}
	.st2{fill:#3D83C5;}
</style>
<text transform="matrix(1 0 0 1 4.2861 50.3955)" class="st0 st1">統計　リアル</text>
<path class="st2" d="M99.16,23.5H75.2c-1.88,0-3.42,1.54-3.42,3.42v23.96c0,1.88,1.54,3.42,3.42,3.42h23.96
	c1.88,0,3.42-1.54,3.42-3.42V26.92C102.59,25.04,101.05,23.5,99.16,23.5z M80.34,47.46c-0.94,0-1.71-0.77-1.71-1.71v-5.13
	c0-0.94,0.77-1.71,1.71-1.71s1.71,0.77,1.71,1.71v5.13C82.05,46.69,81.28,47.46,80.34,47.46z M87.18,47.46
	c-0.94,0-1.71-0.77-1.71-1.71v-1.71c0-0.94,0.77-1.71,1.71-1.71s1.71,0.77,1.71,1.71v1.71C88.89,46.69,88.12,47.46,87.18,47.46z
	 M87.18,38.9c-0.94,0-1.71-0.77-1.71-1.71c0-0.94,0.77-1.71,1.71-1.71s1.71,0.77,1.71,1.71C88.89,38.13,88.12,38.9,87.18,38.9z
	 M94.03,47.46c-0.94,0-1.71-0.77-1.71-1.71V32.06c0-0.94,0.77-1.71,1.71-1.71c0.94,0,1.71,0.77,1.71,1.71v13.69
	C95.74,46.69,94.97,47.46,94.03,47.46z"/>
</svg>
